<svg width="20" height="20" viewBox="0 0 20 20" fill="none" xmlns="http://www.w3.org/2000/svg">
<path d="M4.51602 12.3245L3.02602 18.7765C2.97988 18.9718 2.99373 19.1766 3.06577 19.364C3.1378 19.5513 3.26466 19.7126 3.42979 19.8268C3.59492 19.9409 3.79063 20.0027 3.99137 20.0038C4.19211 20.005 4.38855 19.9457 4.55502 19.8335L10 16.2035L15.445 19.8335C15.6154 19.9466 15.8162 20.0048 16.0207 20.0003C16.2251 19.9958 16.4232 19.9289 16.5884 19.8084C16.7536 19.688 16.878 19.5198 16.9448 19.3266C17.0116 19.1333 17.0176 18.9242 16.962 18.7275L15.133 12.3275L19.669 8.24548C19.8143 8.11467 19.918 7.94414 19.9674 7.75499C20.0168 7.56584 20.0097 7.36636 19.9469 7.18122C19.8841 6.99608 19.7685 6.8334 19.6142 6.7133C19.46 6.5932 19.2739 6.52095 19.079 6.50548L13.378 6.05148L10.911 0.59048C10.8324 0.414636 10.7045 0.265316 10.5428 0.16054C10.3812 0.0557651 10.1927 1.3113e-05 10 1.3113e-05C9.80738 1.3113e-05 9.61886 0.0557651 9.45721 0.16054C9.29556 0.265316 9.16768 0.414636 9.08902 0.59048L6.62202 6.05148L0.921021 6.50448C0.729477 6.51965 0.546359 6.58969 0.393576 6.70621C0.240793 6.82273 0.124814 6.9808 0.059514 7.16151C-0.00578564 7.34222 -0.0176412 7.53791 0.0253658 7.72518C0.0683729 7.91245 0.164422 8.08337 0.302021 8.21748L4.51602 12.3245Z" fill="#F2DBAF"/>
</svg>
