<svg width="14" height="14" viewBox="0 0 14 14" fill="none" xmlns="http://www.w3.org/2000/svg">
<path d="M11.4836 1.95996H2.51632C2.36877 1.95996 2.22725 2.01858 2.12291 2.12291C2.01858 2.22725 1.95996 2.36877 1.95996 2.51632V11.4837C1.96 11.6313 2.01863 11.7727 2.12296 11.8771C2.2273 11.9814 2.36879 12.04 2.51632 12.04H7.34394V8.13648H6.03032V6.61524H7.34394V5.49328C7.34394 4.19128 8.13914 3.48246 9.30058 3.48246C9.85694 3.48246 10.335 3.52376 10.4745 3.54238V4.90304L9.66892 4.90346C9.03724 4.90346 8.91502 5.20362 8.91502 5.64406V6.61538H10.4214L10.2253 8.13662H8.91502V12.04H11.4837C11.6313 12.0399 11.7727 11.9813 11.8771 11.877C11.9814 11.7726 12.04 11.6311 12.04 11.4836V2.51632C12.04 2.36877 11.9813 2.22725 11.877 2.12291C11.7727 2.01858 11.6312 1.95996 11.4836 1.95996Z" fill="#021526"/>
</svg>
