<svg width="14" height="14" viewBox="0 0 14 14" fill="none" xmlns="http://www.w3.org/2000/svg">
<path fill-rule="evenodd" clip-rule="evenodd" d="M6.99976 1.6748C3.98458 1.6748 1.54004 4.11948 1.54004 7.13508C1.54004 9.54742 3.10412 11.5939 5.27398 12.3155C5.54726 12.366 5.64666 12.1979 5.64666 12.0527C5.64666 11.9234 5.6419 11.5802 5.63952 11.1241C4.12066 11.4544 3.8002 10.392 3.8002 10.392C3.55184 9.76134 3.19386 9.59362 3.19386 9.59362C2.69812 9.2551 3.23152 9.26168 3.23152 9.26168C3.77948 9.30046 4.06788 9.8242 4.06788 9.8242C4.5548 10.6586 5.34594 10.4171 5.65688 10.2782C5.7063 9.92472 5.8477 9.68462 6.00352 9.54784C4.79126 9.41008 3.5167 8.94164 3.5167 6.84948C3.5167 6.25322 3.72936 5.76574 4.07852 5.38396C4.02266 5.24648 3.83492 4.69138 4.13214 3.9393C4.13214 3.9393 4.5905 3.79258 5.63378 4.49944C6.06904 4.37778 6.53622 4.31702 7.0006 4.3152C7.46428 4.31716 7.9316 4.37778 8.36742 4.49944C9.41 3.79258 9.86766 3.9393 9.86766 3.9393C10.1656 4.69138 9.97798 5.24648 9.92198 5.38396C10.272 5.76574 10.4831 6.25322 10.4831 6.84948C10.4831 8.94654 9.20672 9.40854 7.9904 9.54322C8.18612 9.71192 8.36084 10.0458 8.36084 10.5553C8.36084 11.2848 8.35426 11.8735 8.35426 12.0526C8.35426 12.1989 8.4524 12.369 8.7296 12.3148C10.8971 11.5917 12.46 9.54672 12.46 7.13508C12.46 4.11948 10.0155 1.6748 6.99976 1.6748Z" fill="#021526"/>
</svg>
