<svg width="23" height="24" viewBox="0 0 23 24" fill="none" xmlns="http://www.w3.org/2000/svg">
<path d="M21.0287 11.5897C21.0287 11.3355 20.9284 11.0918 20.7497 10.912C20.5711 10.7323 20.3288 10.6313 20.0762 10.6313C19.8235 10.6313 19.5813 10.7323 19.4026 10.912C19.224 11.0918 19.1236 11.3355 19.1236 11.5897H21.0287ZM11.5031 3.92301C11.7558 3.92301 11.9981 3.82205 12.1767 3.64232C12.3553 3.4626 12.4557 3.21885 12.4557 2.96468C12.4557 2.71052 12.3553 2.46676 12.1767 2.28704C11.9981 2.10731 11.7558 2.00635 11.5031 2.00635V3.92301ZM18.6473 19.2563H4.35894V21.173H18.6473V19.2563ZM3.88266 18.7772V4.40218H1.97754V18.7772H3.88266ZM19.1236 11.5897V18.7772H21.0287V11.5897H19.1236ZM4.35894 3.92301H11.5031V2.00635H4.35894V3.92301ZM4.35894 19.2563C4.23262 19.2563 4.11148 19.2059 4.02216 19.116C3.93284 19.0261 3.88266 18.9043 3.88266 18.7772H1.97754C1.97754 19.4126 2.22844 20.022 2.67504 20.4713C3.12163 20.9206 3.72735 21.173 4.35894 21.173V19.2563ZM18.6473 21.173C19.2789 21.173 19.8846 20.9206 20.3312 20.4713C20.7778 20.022 21.0287 19.4126 21.0287 18.7772H19.1236C19.1236 18.9043 19.0734 19.0261 18.9841 19.116C18.8948 19.2059 18.7737 19.2563 18.6473 19.2563V21.173ZM3.88266 4.40218C3.88266 4.2751 3.93284 4.15322 4.02216 4.06336C4.11148 3.9735 4.23262 3.92301 4.35894 3.92301V2.00635C3.72735 2.00635 3.12163 2.25877 2.67504 2.70807C2.22844 3.15738 1.97754 3.76677 1.97754 4.40218H3.88266Z" fill="#3C3C43" fill-opacity="0.6"/>
<path d="M2.92969 16.8604L8.02255 12.1636C8.19421 12.0054 8.41755 11.9158 8.65036 11.9119C8.88317 11.9081 9.10934 11.9901 9.28612 12.1426L15.313 17.3396M13.4078 14.9438L15.6811 12.6567C15.8433 12.4935 16.0585 12.3946 16.2873 12.3782C16.5161 12.3618 16.7431 12.4291 16.9266 12.5676L20.0758 14.9438M14.3604 5.8396H20.0758M17.2181 2.9646V8.7146" stroke="#3C3C43" stroke-opacity="0.6" stroke-width="1.16667" stroke-linecap="round" stroke-linejoin="round"/>
</svg>
