<svg width="12" height="12" viewBox="0 0 12 12" fill="none" xmlns="http://www.w3.org/2000/svg">
<path d="M11.9213 3.48727C11.9213 2.43258 11.1455 1.58414 10.1869 1.58414C8.88846 1.52344 7.56424 1.5 6.21096 1.5H5.78908C4.43908 1.5 3.11252 1.52344 1.81408 1.58437C0.857833 1.58437 0.0820517 2.4375 0.0820517 3.49219C0.023458 4.32633 -0.00138579 5.1607 2.0455e-05 5.99508C-0.00232329 6.82945 0.0242392 7.66461 0.079708 8.50055C0.079708 9.55523 0.855489 10.4107 1.81174 10.4107C3.1758 10.474 4.57502 10.5021 5.99768 10.4998C7.42268 10.5045 8.81799 10.4748 10.1836 10.4107C11.1422 10.4107 11.918 9.55523 11.918 8.50055C11.9742 7.66383 12 6.82945 11.9977 5.99273C12.003 5.15836 11.9775 4.3232 11.9213 3.48727ZM4.85158 8.2943V3.68883L8.25002 5.99039L4.85158 8.2943Z" fill="#021526"/>
</svg>